<?xml version="1.0" encoding="UTF-8" standalone="no"?>
<svg width="224px" height="33px" viewBox="0 0 224 33" version="1.1" xmlns="http://www.w3.org/2000/svg" xmlns:xlink="http://www.w3.org/1999/xlink">
    <!-- Generator: Sketch 3.8.3 (29802) - http://www.bohemiancoding.com/sketch -->
    <title>mids-logo</title>
    <desc>Created with Sketch.</desc>
    <defs>
        <polygon id="path-1" points="7.70308121e-05 22.539267 29.3080672 22.539267 29.3080672 0.0532202693 7.70308121e-05 0.0532202693 7.70308121e-05 22.539267"></polygon>
    </defs>
    <g id="Promo-Site-2" stroke="none" stroke-width="1" fill="none" fill-rule="evenodd">
        <g id="MD---Promo-Copy-2" transform="translate(-139.000000, -90.000000)">
            <g id="HERO">
                <g id="mids-logo" transform="translate(139.000000, 90.000000)">
                    <g id="Layer_1" transform="translate(46.000000, 9.000000)" fill="#FFFFFF">
                        <g id="Group" transform="translate(0.895669, 1.102804)">
                            <path d="M16.7695342,5.96929907 C17.3863785,6.78264019 17.6952046,7.8632243 17.6952046,9.21056075 L17.6952046,17.0983178 L15.3569496,17.0983178 L15.3569496,9.43233645 C15.3569496,8.57810748 15.2144144,7.92079439 14.9304754,7.4607243 C14.6463747,7.00065421 14.1715808,6.77037383 13.505932,6.77037383 C13.0346933,6.77037383 12.4989745,6.93049065 11.8982907,7.25088785 C11.2976069,7.5714486 10.6965999,7.99455607 10.0962393,8.52037383 C10.1122381,8.6682243 10.1204799,8.89866822 10.1204799,9.21056075 L10.1204799,17.0983178 L7.78222486,17.0983178 L7.78222486,9.43233645 C7.78222486,8.57810748 7.63985132,7.92079439 7.35591226,7.4607243 C7.07181161,7.00065421 6.59701767,6.77037383 5.93136886,6.77037383 C5.42797094,6.77037383 4.86364813,6.9471729 4.23856204,7.30028037 C3.61347595,7.6538785 2.98418814,8.11002336 2.35086022,8.6682243 L2.35086022,17.0983178 L0.0127667531,17.0983178 L0.0127667531,5.14336449 L1.6448103,5.14336449 L2.05884095,6.72098131 C2.6755236,6.14609813 3.37785663,5.67343458 4.16535521,5.30364486 C4.9528538,4.93385514 5.70366816,4.7488785 6.41844473,4.7488785 C7.19770149,4.7488785 7.85914858,4.92158879 8.40327083,5.26668224 C8.94690827,5.6117757 9.35689881,6.09654206 9.63324246,6.72098131 C10.2500867,6.14609813 10.9522581,5.67343458 11.7399183,5.30364486 C12.5270937,4.93385514 13.2782313,4.7488785 13.9930078,4.7488785 C15.2266964,4.74904206 16.1522052,5.15579439 16.7695342,5.96929907 L16.7695342,5.96929907 Z" id="Shape"></path>
                            <path d="M21.3725144,2.99920561 C20.9664023,2.99920561 20.6255785,2.85560748 20.3493965,2.56775701 C20.0732144,2.2803972 19.9355274,1.93121495 19.9355274,1.52037383 C19.9355274,1.10969626 20.0732144,0.760514019 20.3493965,0.472827103 C20.6255785,0.18546729 20.9664023,0.0415420561 21.3725144,0.0415420561 C21.7783032,0.0415420561 22.1275304,0.185630841 22.4197113,0.472827103 C22.7120538,0.760514019 22.8581443,1.10985981 22.8581443,1.52037383 C22.8581443,1.93121495 22.7120538,2.28056075 22.4197113,2.56775701 C22.1275304,2.85544393 21.7783032,2.99920561 21.3725144,2.99920561 L21.3725144,2.99920561 Z M22.5903656,5.14352804 L22.5903656,17.0984813 L20.2277083,17.0984813 L20.2277083,5.14352804 L22.5903656,5.14352804 L22.5903656,5.14352804 Z" id="Shape"></path>
                            <path d="M24.5873121,16.3342056 L25.3179259,14.6825 C26.4220076,15.2248364 27.4772848,15.4963318 28.4842423,15.4963318 C29.263499,15.4963318 29.8847066,15.3568224 30.3472186,15.0771495 C30.8098922,14.7978037 31.0413098,14.4283411 31.0413098,13.9677804 C31.0413098,13.1464252 30.1647672,12.4562383 28.4111971,11.8975467 C25.829404,11.0433178 24.5386691,9.84366822 24.5386691,8.29876168 C24.5386691,7.21408879 24.9404179,6.36378505 25.7439153,5.74752336 C26.5480591,5.13126168 27.6396973,4.82329439 29.0197995,4.82329439 C29.5716788,4.82329439 30.2255304,4.93042056 30.9805465,5.14352804 C31.7355626,5.35728972 32.3482052,5.62845794 32.8196054,5.95703271 L32.08883,7.55918224 C31.5201438,7.29635514 31.0009087,7.09502336 30.5299933,6.95518692 C30.0590778,6.81584112 29.5393579,6.74584112 28.9711565,6.74584112 C28.3538275,6.74584112 27.8467126,6.88992991 27.449004,7.17712617 C27.0508106,7.46464953 26.8523603,7.82233645 26.8523603,8.24953271 C26.8683592,8.57810748 27.0837779,8.88214953 27.4974854,9.16149533 C27.911516,9.44116822 28.5084829,9.7121729 29.2875781,9.97483645 C31.9504966,10.9446963 33.2819558,12.2346262 33.2819558,13.8446262 C33.2819558,14.9786916 32.8679251,15.8579439 32.0398638,16.4822196 C31.2119641,17.1064953 30.0264337,17.418715 28.4840807,17.418715 C27.9153945,17.418715 27.2376254,17.3200935 26.4502884,17.123014 C25.6627898,16.9259346 25.0415823,16.6629439 24.5873121,16.3342056 L24.5873121,16.3342056 Z" id="Shape"></path>
                            <path d="M36.3264224,2.99920561 C35.920472,2.99920561 35.5793249,2.85560748 35.3031429,2.56775701 C35.0272841,2.2803972 34.8892738,1.93121495 34.8892738,1.52037383 C34.8892738,1.10969626 35.0272841,0.760514019 35.3031429,0.472827103 C35.5793249,0.18546729 35.920472,0.0415420561 36.3264224,0.0415420561 C36.7320496,0.0415420561 37.0814385,0.185630841 37.3734577,0.472827103 C37.6659618,0.760514019 37.8118907,1.10985981 37.8118907,1.52037383 C37.8118907,1.93121495 37.6659618,2.28056075 37.3734577,2.56775701 C37.0814385,2.85544393 36.7320496,2.99920561 36.3264224,2.99920561 L36.3264224,2.99920561 Z M37.5441121,5.14352804 L37.5441121,17.0984813 L35.1816163,17.0984813 L35.1816163,5.14352804 L37.5441121,5.14352804 L37.5441121,5.14352804 Z" id="Shape"></path>
                            <path d="M50.5257991,14.4114953 C50.0384001,15.3646729 49.3443089,16.1042523 48.4432023,16.6299065 C47.5419342,17.1555607 46.4903739,17.418715 45.2890063,17.418715 C44.1037991,17.418715 43.0687225,17.1557243 42.1837764,16.6299065 C41.2983455,16.1042523 40.620738,15.3646729 40.1499841,14.4114953 C39.6789071,13.4586449 39.4437726,12.3576168 39.4437726,11.1087383 C39.4437726,9.87621495 39.6873106,8.78352804 40.1743864,7.83018692 C40.6613007,6.8775 41.3515134,6.13792056 42.2448629,5.61193925 C43.1374044,5.08628505 44.1844397,4.82313084 45.3864538,4.82313084 C46.5713378,4.82313084 47.606576,5.0861215 48.4918453,5.61193925 C49.3766298,6.13808411 50.058439,6.8775 50.5375963,7.83018692 C51.0164303,8.78336449 51.2560897,9.88455607 51.2560897,11.133271 C51.256413,12.3656308 51.0127134,13.4586449 50.5257991,14.4114953 L50.5257991,14.4114953 Z M47.8830812,14.1897196 C48.5243278,13.3847196 48.8533545,12.3742991 48.8695149,11.1579673 C48.8695149,9.8760514 48.5608504,8.83700935 47.9438445,8.03953271 C47.3265155,7.24271028 46.4742135,6.84413551 45.3866154,6.84413551 C44.3148545,6.84413551 43.4583509,7.24712617 42.8171043,8.05179907 C42.1755346,8.85728972 41.8466695,9.86803738 41.8308322,11.0840421 C41.8308322,12.3654673 42.1388504,13.405 42.756341,14.201986 C43.3731853,14.9991355 44.2254873,15.3972196 45.3135702,15.3972196 C46.3851694,15.3973832 47.2416731,14.9952103 47.8830812,14.1897196 L47.8830812,14.1897196 Z" id="Shape"></path>
                            <path d="M55.4940054,8.6682243 L55.4940054,17.0983178 L53.1560735,17.0983178 L53.1560735,5.14336449 L54.7879554,5.14336449 L55.2019861,6.72098131 C55.8351524,6.14609813 56.5496058,5.67343458 57.3453462,5.30364486 C58.1407634,4.93385514 58.9284236,4.7488785 59.7076803,4.7488785 C60.990335,4.7488785 61.9442862,5.15186916 62.5695339,5.95686916 C63.1944584,6.76203271 63.5073246,7.84670561 63.5073246,9.2103972 L63.5073246,17.0981542 L61.1689079,17.0981542 L61.1689079,9.4321729 C61.1689079,8.56158879 61.026696,7.90035047 60.7425953,7.44813084 C60.4584947,6.99623832 59.9510566,6.77021028 59.2206044,6.77021028 C58.668402,6.77021028 58.0673949,6.94700935 57.4182298,7.30011682 C56.7685798,7.6538785 56.1271717,8.11002336 55.4940054,8.6682243 L55.4940054,8.6682243 Z" id="Shape"></path>
                            <path d="M76.1231392,11.0097897 L76.1231392,11.6507477 L67.7447554,11.6507477 C67.8420413,12.8176869 68.2109843,13.7379907 68.8527157,14.4114953 C69.4939622,15.0853271 70.4479134,15.4219159 71.7145692,15.4219159 C72.3312519,15.4219159 72.871334,15.3443925 73.3341692,15.1878738 C73.7965196,15.0321729 74.4421295,14.7567523 75.2701908,14.3622664 L76.0008046,16.0875701 C74.5718979,16.958972 73.1429911,17.3940187 71.7145692,17.3940187 C69.6523346,17.3940187 68.0690956,16.826986 66.9651755,15.6934112 C65.8607705,14.5593458 65.3088912,13.0311215 65.3088912,11.1087383 C65.3088912,9.87621495 65.5359455,8.78352804 65.9910237,7.83018692 C66.4454555,6.8775 67.098984,6.13792056 67.9516091,5.61193925 C68.8040727,5.08628505 69.8065052,4.82313084 70.9595531,4.82313084 C72.6641571,4.82313084 73.9511751,5.40226636 74.8197991,6.56070093 C75.6882615,7.71929907 76.1231392,9.20271028 76.1231392,11.0097897 L76.1231392,11.0097897 Z M67.7933984,10.0485981 L73.8579293,10.0485981 C73.5491032,7.91278037 72.5584678,6.84429907 70.8863463,6.84429907 C69.99332,6.84429907 69.2825836,7.12773364 68.7552682,7.69476636 C68.2276296,8.26179907 67.9066831,9.04651869 67.7933984,10.0485981 L67.7933984,10.0485981 Z" id="Shape"></path>
                            <path d="M77.3894718,16.3342056 L78.1200856,14.6825 C79.2240057,15.2248364 80.2794445,15.4963318 81.286402,15.4963318 C82.0656587,15.4963318 82.6867047,15.3568224 83.1493783,15.0771495 C83.6120519,14.7978037 83.8434695,14.4283411 83.8434695,13.9677804 C83.8434695,13.1464252 82.9669269,12.4562383 81.2133568,11.8975467 C78.6315637,11.0433178 77.3405056,9.84366822 77.3405056,8.29876168 C77.3405056,7.21408879 77.742416,6.36378505 78.546075,5.74752336 C79.3502188,5.13126168 80.4415338,4.82329439 81.8219592,4.82329439 C82.3738385,4.82329439 83.0276901,4.93042056 83.7827062,5.14352804 C84.5377223,5.35728972 85.1503649,5.62845794 85.6217651,5.95703271 L84.8909897,7.55918224 C84.3223036,7.29635514 83.8030684,7.09502336 83.332153,6.95518692 C82.8610759,6.81584112 82.3415176,6.74584112 81.7733163,6.74584112 C81.1559872,6.74584112 80.6488723,6.88992991 80.2511637,7.17712617 C79.8529703,7.46464953 79.65452,7.82233645 79.65452,8.24953271 C79.6703573,8.57810748 79.885776,8.88214953 80.2996451,9.16149533 C80.7136757,9.44116822 81.3106427,9.7121729 82.0897378,9.97483645 C84.7526563,10.9446963 86.0841155,12.2346262 86.0841155,13.8446262 C86.0841155,14.9786916 85.6700848,15.8579439 84.8420235,16.4822196 C84.0139622,17.1064953 82.8285934,17.418715 81.2862404,17.418715 C80.7175542,17.418715 80.0397851,17.3200935 79.2524481,17.123014 C78.4647879,16.9259346 77.843742,16.6629439 77.3894718,16.3342056 L77.3894718,16.3342056 Z" id="Shape"></path>
                        </g>
                        <g id="Group" transform="translate(89.131710, 0.285047)">
                            <path d="M12.0972258,17.9160748 L10.1487607,17.9160748 L9.44238758,16.9545561 C8.9553117,17.3328505 8.4275115,17.6324766 7.85931019,17.8545794 C7.29078566,18.0763551 6.7062623,18.1870794 6.10557848,18.1870794 C4.27055972,18.1870794 2.80933211,17.644743 1.72173402,16.5603972 C0.633651127,15.4755607 0.0896904808,13.939486 0.0896904808,11.9511916 C0.0896904808,9.9628972 0.641408141,8.4057243 1.74581309,7.28 C2.85005643,6.15476636 4.35200838,5.59149533 6.25150732,5.59149533 C6.91731773,5.59149533 7.59120837,5.75602804 8.27334084,6.0846028 L8.27334084,0.784883178 L12.0970642,0.513878505 L12.0970642,17.9160748 L12.0972258,17.9160748 Z M4.69315541,14.2557944 C5.13158834,14.8228271 5.74035238,15.1060981 6.51993234,15.1060981 C7.05581276,15.1060981 7.64033613,14.8759813 8.27366405,14.4159112 L8.27366405,9.31359813 C7.68897908,8.90308411 7.07165,8.69733645 6.42248485,8.69733645 C5.70786988,8.69733645 5.13174994,8.99336449 4.69331702,9.5846028 C4.25504569,10.1763318 4.03574843,10.9571262 4.03574843,11.9266589 C4.03558682,12.9123832 4.25488409,13.6887617 4.69315541,14.2557944 L4.69315541,14.2557944 Z" id="Shape"></path>
                            <path d="M16.3107392,4.30974299 C15.742053,4.30974299 15.2512602,4.10007009 14.8372296,3.68121495 C14.4231989,3.26219626 14.2161836,2.7653271 14.2161836,2.18995327 C14.2161836,1.5985514 14.4231989,1.09301402 14.8372296,0.673995327 C15.2512602,0.254976636 15.7422146,0.0454672897 16.3107392,0.0454672897 C16.8951009,0.0454672897 17.3942971,0.255140187 17.8084894,0.673995327 C18.22252,1.09301402 18.429697,1.59838785 18.429697,2.18995327 C18.429697,2.7653271 18.22252,3.26219626 17.8084894,3.68121495 C17.3942971,4.10023364 16.8951009,4.30974299 16.3107392,4.30974299 L16.3107392,4.30974299 Z M18.2346404,5.96128505 L18.2346404,17.9162383 L14.4107554,17.9162383 L14.4107554,5.96128505 L18.2346404,5.96128505 L18.2346404,5.96128505 Z" id="Shape"></path>
                            <path d="M31.5566665,18.3841589 C31.5566665,19.4359579 31.2922815,20.3562617 30.7651278,21.1449065 C30.2373276,21.933715 29.4902301,22.5375467 28.5243202,22.9568925 C27.5582487,23.3757477 26.441885,23.5850935 25.1755524,23.5850935 C24.5259024,23.5850935 23.6655202,23.4619393 22.5937593,23.2156308 C21.5219985,22.9693224 20.6698581,22.632243 20.0363686,22.2052103 L21.1811747,19.4936916 C22.4966351,20.150514 23.754241,20.4795794 24.9562551,20.4795794 C25.7843164,20.4795794 26.4540053,20.2864252 26.9656451,19.9002804 C27.4769616,19.5141355 27.7327815,19.0007477 27.7327815,18.3597897 L27.7327815,17.6942991 C27.0021677,18.0228738 26.2796341,18.1874065 25.5651807,18.1874065 C23.730162,18.1874065 22.2689344,17.6450701 21.1811747,16.5607243 C20.093415,15.4758879 19.5491311,13.9398131 19.5491311,11.9515187 C19.5491311,9.9632243 20.101172,8.4060514 21.2055769,7.2803271 C22.3093355,6.15509346 23.811449,5.59182243 25.7112712,5.59182243 C26.2629888,5.59182243 26.8232715,5.70287383 27.3916345,5.92464953 C27.9598358,6.14658879 28.487636,6.46306075 28.9747118,6.87373832 L29.6080398,5.98647196 L31.5566665,5.98647196 L31.5566665,18.3841589 L31.5566665,18.3841589 Z M27.7327815,14.4159112 L27.7327815,9.31359813 C27.1482581,8.90308411 26.530929,8.69733645 25.8819255,8.69733645 C25.1668257,8.69733645 24.591029,8.99336449 24.1524345,9.5846028 C23.7141631,10.1763318 23.4948659,10.9571262 23.4948659,11.9266589 C23.4948659,12.9125467 23.7141631,13.6889252 24.1524345,14.2559579 C24.591029,14.8229907 25.199793,15.1062617 25.9792114,15.1062617 C26.5150918,15.1060981 27.0994536,14.8759813 27.7327815,14.4159112 L27.7327815,14.4159112 Z" id="Shape"></path>
                            <path d="M35.6724091,4.30974299 C35.1040462,4.30974299 34.6130918,4.10007009 34.1990611,3.68121495 C33.7850305,3.26219626 33.5778536,2.7653271 33.5778536,2.18995327 C33.5778536,1.5985514 33.7850305,1.09301402 34.1990611,0.673995327 C34.6130918,0.254976636 35.1042078,0.0454672897 35.6724091,0.0454672897 C36.2569325,0.0454672897 36.7564519,0.255140187 37.1706441,0.673995327 C37.5846748,1.09301402 37.7916901,1.59838785 37.7916901,2.18995327 C37.7916901,2.7653271 37.5846748,3.26219626 37.1706441,3.68121495 C36.7564519,4.10023364 36.2569325,4.30974299 35.6724091,4.30974299 L35.6724091,4.30974299 Z M37.5966335,5.96128505 L37.5966335,17.9162383 L33.7727486,17.9162383 L33.7727486,5.96128505 L37.5966335,5.96128505 L37.5966335,5.96128505 Z" id="Shape"></path>
                            <path d="M44.1236765,6.23245327 L46.7539508,6.23245327 L47.4359217,9.2396729 L44.1236765,9.2396729 L44.1236765,13.2326168 C44.1236765,13.7916355 44.2616867,14.243528 44.5377071,14.5882944 C44.8134043,14.9335514 45.1952757,15.1060981 45.68219,15.1060981 C46.1854263,15.1060981 46.6888242,14.9746028 47.1922221,14.7114486 L48.2883853,17.398271 C48.0122032,17.628715 47.5900923,17.8338084 47.021891,18.0145327 C46.4533665,18.1949299 45.9258895,18.2855374 45.438652,18.2855374 C43.9447803,18.2855374 42.7188488,17.8913785 41.7608575,17.1025701 C40.8027046,16.3137617 40.3240322,15.1965421 40.3240322,13.7500935 L40.3240322,9.23934579 L38.619105,9.23934579 L38.619105,6.23212617 L40.3240322,6.23212617 L40.3240322,3.20070093 L44.1235149,2.60897196 L44.1235149,6.23245327 L44.1236765,6.23245327 Z" id="Shape"></path>
                            <path d="M50.5044674,9.65885514 L49.4816727,6.70070093 C50.0173915,6.405 50.7560855,6.14626168 51.698078,5.92432243 C52.639424,5.70254673 53.4841306,5.59149533 54.2310664,5.59149533 C55.221217,5.59149533 56.0979213,5.78873832 56.8615024,6.1832243 C57.6244371,6.57754673 58.2130006,7.13231308 58.6270312,7.84719626 C59.0410619,8.56191589 59.2482388,9.3796729 59.2482388,10.299486 L59.2482388,17.9162383 L57.1294426,17.9162383 L56.2281745,16.6590187 C55.3513086,17.678271 54.3853987,18.187243 53.3297983,18.187243 C51.9008916,18.187243 50.8213737,17.8300467 50.0907599,17.1151636 C49.3599845,16.4002804 48.9944352,15.4264953 48.9944352,14.1942991 C48.9944352,12.9784579 49.400224,12.0661682 50.2124481,11.4580841 C51.0241873,10.8501636 52.1365109,10.5461215 53.5490956,10.5461215 L55.3999516,10.5461215 C55.3671459,10.0204673 55.2010165,9.6135514 54.900917,9.32586449 C54.6000094,9.03850467 54.1980991,8.89441589 53.695186,8.89441589 C53.224109,8.89441589 52.6882286,8.96866822 52.0875447,9.11651869 C51.4866993,9.26420561 50.9588991,9.44542056 50.5044674,9.65885514 L50.5044674,9.65885514 Z M52.2093945,14.1696028 C52.2093945,14.4653037 52.314599,14.7202804 52.5259777,14.933715 C52.7367099,15.1474766 53.0132151,15.2539486 53.3537158,15.2539486 C54.0683307,15.2539486 54.7582202,14.9420561 55.4241922,14.3174533 L55.4241922,12.8631542 L53.5731746,12.8631542 C53.1672242,12.8631542 52.8385207,12.9863084 52.5869026,13.2326168 C52.3349612,13.4794159 52.2093945,13.7916355 52.2093945,14.1696028 L52.2093945,14.1696028 Z" id="Shape"></path>
                            <polygon id="Shape" points="65.2397245 0.513878505 65.2397245 17.9160748 61.4400802 17.9160748 61.4400802 0.784883178"></polygon>
                            <path d="M78.5132693,11.8275467 L78.5132693,12.9861449 L70.9387062,12.9861449 C71.2955288,14.3832009 72.3349688,15.0814019 74.0558948,15.0814019 C75.1764602,15.0814019 76.2882989,14.7695093 77.3927039,14.1449065 L78.4644647,16.8314019 C77.9122623,17.242243 77.2344931,17.5708178 76.4306725,17.8176168 C75.6270134,18.0639252 74.7459459,18.1870794 73.7881162,18.1870794 C71.628434,18.1870794 69.927547,17.636729 68.6857782,16.5357009 C67.4433631,15.435 66.8224787,13.9067757 66.8224787,11.951028 C66.8224787,10.6691121 67.0821771,9.54747664 67.6018971,8.58628505 C68.1212938,7.62492991 68.8475443,6.88551402 69.7816182,6.36803738 C70.7150456,5.85023364 71.7826047,5.59149533 72.9841339,5.59149533 C74.1856632,5.59149533 75.2007009,5.87116822 76.0287622,6.42969626 C76.8568235,6.9885514 77.478031,7.73598131 77.8920617,8.67264019 C78.306254,9.60913551 78.5132693,10.6614252 78.5132693,11.8275467 L78.5132693,11.8275467 Z M70.8899016,10.7924299 L74.8842793,10.7924299 C74.7866702,10.1848364 74.5712514,9.69581776 74.238831,9.32586449 C73.9057642,8.95640187 73.4550494,8.77109813 72.8870097,8.77109813 C72.3514524,8.77109813 71.900576,8.95623832 71.5353499,9.32586449 C71.1699622,9.69581776 70.9543818,10.185 70.8899016,10.7924299 L70.8899016,10.7924299 Z" id="Shape"></path>
                            <path d="M79.1461124,16.8806308 L80.2665162,14.3666822 C80.7694293,14.6129907 81.3261567,14.814486 81.9347591,14.9706776 C82.5436848,15.1268692 83.0588798,15.2047196 83.4813139,15.2047196 C83.8711039,15.2047196 84.2158062,15.1352103 84.5162289,14.9953738 C84.81649,14.8558645 84.9671054,14.6623832 84.9671054,14.4160748 C84.9671054,14.2026402 84.8245702,13.9968925 84.5404696,13.7998131 C84.2563689,13.6027336 83.8625388,13.4220093 83.3593025,13.2574766 C82.1739337,12.8469626 81.199782,12.3376636 80.4366857,11.7292523 C79.6731046,11.1216589 79.2920412,10.3488785 79.2920412,9.41238318 C79.2920412,8.22941589 79.7303125,7.29684579 80.60734,6.6146729 C81.4840442,5.93299065 82.6852503,5.59165888 84.2120893,5.59165888 C84.828772,5.59165888 85.5472654,5.69453271 86.3674081,5.89978972 C87.187066,6.10537383 87.8809956,6.42168224 88.4496817,6.8488785 L87.3538418,9.36299065 C86.2172776,8.85401869 85.2104817,8.5988785 84.3337775,8.5988785 C83.9599863,8.5988785 83.6518066,8.67280374 83.4081071,8.82065421 C83.1645691,8.96883178 83.042881,9.15757009 83.042881,9.38768692 C83.042881,9.65067757 83.5543591,9.96306075 84.5773154,10.3241822 C87.2887152,11.2773598 88.6447383,12.6085047 88.6447383,14.3176168 C88.6447383,15.5501402 88.2261827,16.5029907 87.3902028,17.176986 C86.5537381,17.8508178 85.3323315,18.1874065 83.7246902,18.1874065 C83.0750403,18.1874065 82.2877033,18.0804439 81.3623561,17.8671729 C80.4368473,17.6535748 79.6979916,17.3245093 79.1461124,16.8806308 L79.1461124,16.8806308 Z" id="Shape"></path>
                        </g>
                    </g>
                    <g id="Logo">
                        <path id="Fill-1" fill="#FF5F2E"></path>
                        <g id="Group-5" transform="translate(9.859944, 6.603545)">
                            <mask id="mask-2" fill="white">
                                <use xlink:href="#path-1"></use>
                            </mask>
                            <g id="Clip-4"></g>
                            <path d="M29.3056793,20.8788897 C28.8393347,12.5099218 24.7912115,5.07365034 18.7013095,0.0532202693 C16.42243,9.67442072 9.39783613,17.4254753 7.70308121e-05,20.7017954 L7.70308121e-05,20.9564738 C7.70308121e-05,21.8080595 0.760063025,22.5392823 1.61572129,22.5392823 L27.7578221,22.5392823 C28.6521499,22.5392823 29.3552871,21.7675808 29.3056793,20.8788897" id="Fill-3" fill="#FFFFFF" opacity="0.5" mask="url(#mask-2)"></path>
                        </g>
                        <path id="Fill-6" fill="#FF5F2E"></path>
                        <path d="M9.85994398,27.305356 C19.2577031,24.0290359 26.282451,16.2677083 28.5613305,6.64666118 C23.8881793,2.79413313 18.010112,0.358052356 11.557549,0.00187060583 C11.5102521,-0.000735976066 11.4718908,-0.000122662678 11.4255182,0.00125729245 C11.4078011,0.00171727749 11.3942437,0.00294390426 11.3766807,0.00401720269 C11.3327731,0.00693044129 11.2911765,0.0106103216 11.2481933,0.0170501122 C11.2460364,0.0173567689 11.2116807,0.0176634256 11.2093697,0.0181234106 C10.4683333,0.132506358 9.85994398,0.764679132 9.85994398,1.54220718 L9.85994398,27.305356 Z" id="Fill-8" fill="#FFFFFF" opacity="0.9"></path>
                        <path d="M9.85994398,1.55415146 C9.85994398,0.776623411 10.4378291,0.144450636 11.1788655,0.0299143605 C10.4319748,0.14031077 9.85994398,0.779383321 9.85994398,1.55338482 L9.85994398,7.70047158 C9.85994398,8.56033695 9.21612045,9.21014248 8.35214286,9.21014248 L1.55586835,9.21014248 C0.700056022,9.21014248 0,9.95424495 0,10.8059839 L0,27.4171171 C0,28.3074948 0.724243697,29.0077453 1.617493,28.9603669 C4.50537815,28.8071918 7.39495798,28.2388037 9.85994398,27.3173003 L9.85994398,1.55415146 Z" id="Fill-10" fill="#FFFFFF" opacity="0.5"></path>
                        <path d="M11.5740644,0.0137228871 C18.0267815,0.369904637 23.9213333,2.80613874 28.5944846,6.65851346 C28.9802549,5.02985976 29.2290644,3.34815445 29.3244286,1.6256638 C29.3734202,0.737279357 28.6949328,0.0105029918 27.8009132,0.0105029918 L11.4725378,0.0105029918 C11.4594426,0.0105029918 11.4468095,0.0124962603 11.4338683,0.012802917 C11.4802409,0.0112696335 11.5267675,0.0111163052 11.5740644,0.0137228871" id="Fill-12" fill="#FFFFFF" opacity="0.5"></path>
                        <path id="Fill-14" fill="#FCBE32"></path>
                    </g>
                </g>
            </g>
        </g>
    </g>
</svg>